HIERARCHY
ROOT Hips
{
	OFFSET 0.00000 0.00000 0.00000
	CHANNELS 6 Xposition Yposition Zposition Zrotation Yrotation Xrotation 
	JOINT LHipJoint
	{
		OFFSET 0 0 0
		CHANNELS 3 Zrotation Yrotation Xrotation
		JOINT LeftHip
		{
			OFFSET 1.37590 -1.78394 0.89329
			CHANNELS 3 Zrotation Yrotation Xrotation
			JOINT LeftKnee
			{
				OFFSET 2.47928 -6.81178 0.00000
				CHANNELS 3 Zrotation Yrotation Xrotation
				JOINT LeftAnkle
				{
					OFFSET 2.63345 -7.23535 0.00000
					CHANNELS 3 Zrotation Yrotation Xrotation
					JOINT LeftToe
					{
						OFFSET 0.23938 -0.65768 2.27012
						CHANNELS 3 Zrotation Yrotation Xrotation
						End Site
						{
							OFFSET 0.00000 -0.00000 1.18363
						}
					}
				}
			}
		}
	}
	JOINT RHipJoint
	{
		OFFSET 0 0 0
		CHANNELS 3 Zrotation Yrotation Xrotation
		JOINT RightHip
		{
			OFFSET -1.33617 -1.78394 0.89329
			CHANNELS 3 Zrotation Yrotation Xrotation
			JOINT RightKnee
			{
				OFFSET -2.56922 -7.05888 0.00000
				CHANNELS 3 Zrotation Yrotation Xrotation
				JOINT RightAnkle
				{
					OFFSET -2.56568 -7.04915 0.00000
					CHANNELS 3 Zrotation Yrotation Xrotation
					JOINT RightToe
					{
						OFFSET -0.27533 -0.75646 2.18105
						CHANNELS 3 Zrotation Yrotation Xrotation
						End Site
						{
							OFFSET -0.00000 -0.00000 1.15233
						}
					}
				}
			}
		}
	}
	JOINT lowerback
	{
		OFFSET 0 0 0
		CHANNELS 3 Zrotation Yrotation Xrotation
		JOINT Chest
		{
			OFFSET 0.06190 2.15152 -0.00935
			CHANNELS 3 Zrotation Yrotation Xrotation
			JOINT Chest2
			{
				OFFSET 0.06334 2.15332 0.00872
				CHANNELS 3 Zrotation Yrotation Xrotation
				JOINT lowerneck
				{
					OFFSET 0 0 0
					CHANNELS 3 Zrotation Yrotation Xrotation
					JOINT Neck
					{
						OFFSET -0.04202 1.66908 0.23524
						CHANNELS 3 Zrotation Yrotation Xrotation
						JOINT Head
						{
							OFFSET 0.07510 1.69357 -0.24440
							CHANNELS 3 Zrotation Yrotation Xrotation
							End Site
							{
								OFFSET 0.02556 1.71719 -0.11000
							}
						}
					}
				}
				JOINT LeftCollar
				{
					OFFSET 0 0 0
					CHANNELS 3 Zrotation Yrotation Xrotation
					JOINT LeftShoulder
					{
						OFFSET 3.67168 1.26306 -0.41342
CHANNELS 3 Zrotation Xrotation Yrotation
						JOINT LeftElbow
						{
OFFSET 0 -4.685100 -0.000000
CHANNELS 3 Zrotation Xrotation Yrotation
							JOINT LeftWrist
							{
OFFSET 0 -3.396260 -0.000000
CHANNELS 3 Zrotation Xrotation Yrotation
								JOINT lhand
								{
									OFFSET 0 0 0
CHANNELS 3 Zrotation Xrotation Yrotation
									JOINT LFingers
									{
OFFSET 0 -0.486080 -0.000000
CHANNELS 3 Zrotation Xrotation Yrotation
										End Site
										{
OFFSET 0 -0.391890 -0.000000
										}
									}
								}
								JOINT LThumb
								{
OFFSET 0 0.000000 0.000000
CHANNELS 3 Zrotation Xrotation Yrotation
									End Site
									{
OFFSET 0 -0.397870 0.397870
									}
								}
							}
						}
					}
				}
				JOINT RightCollar
				{
					OFFSET 0 0 0
					CHANNELS 3 Zrotation Yrotation Xrotation
					JOINT RightShoulder
					{
						OFFSET -3.04136 1.42992 -0.76390
CHANNELS 3 Zrotation Xrotation Yrotation
						JOINT RightElbow
						{
OFFSET 0 -5.555760 -0.000000
CHANNELS 3 Zrotation Xrotation Yrotation
							JOINT RightWrist
							{
OFFSET 0 -3.327740 -0.000000
CHANNELS 3 Zrotation Xrotation Yrotation
								JOINT rhand
								{
									OFFSET 0 0 0
CHANNELS 3 Zrotation Xrotation Yrotation
									JOINT RFingers
									{
OFFSET 0 -0.507630 -0.000000
CHANNELS 3 Zrotation Xrotation Yrotation
										End Site
										{
OFFSET 0 -0.409260 -0.000000
										}
									}
								}
								JOINT RThumb
								{
OFFSET 0 0.000000 0.000000
CHANNELS 3 Zrotation Xrotation Yrotation
									End Site
									{
OFFSET 0 -0.415510 0.415510
									}
								}
							}
						}
					}
				}
			}
		}
	}
}
MOTION
Frames: 5
Frame Time: 0.008333333333333333
2.959175 18.099138 4.093971 -390.829664 -79.242717 395.973674 0.000000 0.000000 0.000000 -7.621174 -7.728514 -19.183546 9.709643 17.243272 58.513447 0.002233 0.332118 -0.986693 0.546294 -4.735225 -13.154994 0.000000 0.000000 0.000000 27.155379 3.790174 -12.423274 -1.083257 -6.615030 18.579722 0.354482 -13.352424 -13.737706 -0.548991 -4.746670 13.187334 4.450348 -0.831527 -0.326715 7.895119 -1.302199 -1.036803 5.702748 -0.762036 -0.795236 -0.739149 0.762539 -13.374271 6.962268 -0.414731 18.360878 2.376659 0.355572 7.898732 0.000000 0.000000 0.000000 79.862013 -19.512676 16.020761 30.804632 -41.573205 11.939992 27.878558 23.994705 -17.191087 0.000000 0.000000 0.000000 -7.125000 0.000000 0.000000 -0.033835 49.269875 0.003485 0.000000 0.000000 0.000000 -19.379861 1.131948 -8.691422 -10.402360 -17.366381 -1.593020 -14.567731 23.168232 28.583944 0.000000 0.000000 0.000000 7.125000 0.000000 0.000000 18.134063 58.426319 -6.083305
2.866624 18.105035 4.081191 -391.305361 -79.245235 396.418788 0.000000 0.000000 0.000000 -7.453391 -7.715834 -19.852493 9.654195 17.210672 58.326007 0.009113 0.213478 -1.801996 0.556508 -4.778389 -13.277594 0.000000 0.000000 0.000000 27.392506 3.689909 -11.904151 -1.051449 -6.520106 18.301291 0.346108 -13.339991 -13.871938 -0.535572 -4.688953 13.023551 4.584017 -0.785602 -0.297707 7.851621 -1.237779 -1.025770 5.580913 -0.730449 -0.808088 -0.670746 0.816809 -13.319150 6.899260 -0.345665 18.413811 2.351804 0.386551 7.903356 0.000000 0.000000 0.000000 78.599218 -19.388283 14.871033 30.818046 -41.584349 11.948911 27.379644 23.612687 -17.229526 0.000000 0.000000 0.000000 -7.125000 0.000000 0.000000 -0.532337 49.230219 0.055272 0.000000 0.000000 0.000000 -19.283509 0.899074 -7.844397 -10.569285 -17.624840 -1.643313 -14.738183 22.685965 28.528670 0.000000 0.000000 0.000000 7.125000 0.000000 0.000000 17.919177 58.411393 -6.001715
2.774506 18.110592 4.069084 -391.793581 -79.259529 396.878953 0.000000 0.000000 0.000000 -7.297054 -7.695939 -20.511047 9.581566 17.167612 58.080182 0.019048 0.138654 -2.609091 0.571341 -4.840528 -13.454235 0.000000 0.000000 0.000000 27.621431 3.599192 -11.393032 -1.021144 -6.428368 18.032595 0.337912 -13.329113 -14.004302 -0.520958 -4.625373 12.843202 4.718197 -0.740234 -0.269208 7.804775 -1.174128 -1.013155 5.455228 -0.699213 -0.818655 -0.589274 0.877832 -13.265779 6.825626 -0.267996 18.468615 2.322151 0.421608 7.908691 0.000000 0.000000 0.000000 77.311985 -19.219950 13.701468 30.838326 -41.601200 11.962373 26.830840 23.226098 -17.264086 0.000000 0.000000 0.000000 -7.125000 0.000000 0.000000 -1.078467 49.178629 0.110744 0.000000 0.000000 0.000000 -19.185550 0.655087 -6.981063 -10.744557 -17.895409 -1.696782 -14.908512 22.187908 28.469531 0.000000 0.000000 0.000000 7.125000 0.000000 0.000000 17.701931 58.392604 -5.917898
2.682807 18.115810 4.057675 -392.289404 -79.285735 397.349581 0.000000 0.000000 0.000000 -7.153549 -7.669809 -21.158778 9.492002 17.114060 57.776603 0.031780 0.110437 -3.401033 0.587997 -4.909581 -13.650738 0.000000 0.000000 0.000000 27.840929 3.517830 -10.890625 -0.992356 -6.339969 17.774018 0.329899 -13.320000 -14.135349 -0.505169 -4.556092 12.646687 4.851246 -0.696060 -0.242230 7.754617 -1.112222 -0.998592 5.326626 -0.668793 -0.825878 -0.494690 0.945780 -13.214418 6.741525 -0.181506 18.525128 2.287765 0.460876 7.914771 0.000000 0.000000 0.000000 76.001864 -19.004610 12.513501 30.865664 -41.623930 11.980503 26.224862 22.829363 -17.292511 0.000000 0.000000 0.000000 -7.125000 0.000000 0.000000 -1.678703 49.111621 0.170054 0.000000 0.000000 0.000000 -19.086941 0.397988 -6.104755 -10.926833 -18.175927 -1.753067 -15.074563 21.678257 28.404975 0.000000 0.000000 0.000000 7.125000 0.000000 0.000000 17.485645 58.367559 -5.832001
2.591709 18.120427 4.047268 -392.789234 -79.328902 397.828890 0.000000 0.000000 0.000000 -7.030277 -7.637269 -21.790015 9.378331 17.044949 57.389418 0.047318 0.155876 -4.147699 0.604854 -4.978033 -13.845907 0.000000 0.000000 0.000000 28.043865 3.450624 -10.402375 -0.965972 -6.257446 17.533338 0.320885 -13.307614 -14.275477 -0.491318 -4.494089 12.470940 4.980088 -0.655092 -0.218924 7.699650 -1.055056 -0.980489 5.195219 -0.640577 -0.826758 -0.383145 1.024345 -13.168466 6.645004 -0.081394 18.583979 2.247969 0.506755 7.922319 0.000000 0.000000 0.000000 74.660826 -18.717684 11.305702 30.901283 -41.653539 12.004175 25.527666 22.404581 -17.293757 0.000000 0.000000 0.000000 -7.125000 0.000000 0.000000 -2.360875 49.001541 0.232569 0.000000 0.000000 0.000000 -18.989466 0.115313 -5.219500 -11.115185 -18.464391 -1.812358 -15.223852 21.174617 28.338282 0.000000 0.000000 0.000000 7.125000 0.000000 0.000000 17.285786 58.336704 -5.749845
